<svg xmlns="http://www.w3.org/2000/svg" viewBox="0 0 420 420"><defs><radialGradient id="fur" cx="35%" cy="22%"><stop stop-color="#ffd68a"/><stop offset=".65" stop-color="#f4a447"/><stop offset="1" stop-color="#d87a2d"/></radialGradient><linearGradient id="shirt" x1="0" y1="0" x2="0" y2="1"><stop stop-color="#59d8ff"/><stop offset="1" stop-color="#1678df"/></linearGradient></defs><ellipse cx="210" cy="390" rx="118" ry="20" fill="#392b86" opacity=".2"/><path d="M112 105Q50 70 67 175Q91 188 129 158Z" fill="#9b552f"/><path d="M308 105Q370 70 353 175Q329 188 291 158Z" fill="#9b552f"/><circle cx="210" cy="183" r="128" fill="url(#fur)" stroke="#7e4328" stroke-width="10"/><ellipse cx="210" cy="245" rx="83" ry="66" fill="#ffe3b1"/><ellipse cx="158" cy="172" rx="28" ry="38" fill="#fff"/><ellipse cx="262" cy="172" rx="28" ry="38" fill="#fff"/><ellipse cx="161" cy="181" rx="15" ry="22" fill="#25304e"/><ellipse cx="259" cy="181" rx="15" ry="22" fill="#25304e"/><circle cx="155" cy="171" r="6" fill="#fff"/><circle cx="253" cy="171" r="6" fill="#fff"/><ellipse cx="210" cy="225" rx="30" ry="23" fill="#4c3132"/><path d="M174 258Q210 294 246 258" fill="#fff" stroke="#643b34" stroke-width="8" stroke-linecap="round"/><path d="M151 306Q210 280 269 306L291 374Q210 401 129 374Z" fill="url(#shirt)" stroke="#1261bb" stroke-width="9"/><circle cx="210" cy="337" r="25" fill="#fff"/><path d="M199 338l9 9 17-21" fill="none" stroke="#1684df" stroke-width="8" stroke-linecap="round" stroke-linejoin="round"/><path d="M143 325Q90 338 82 378" fill="none" stroke="#ef9a42" stroke-width="31" stroke-linecap="round"/><path d="M277 325Q330 338 338 378" fill="none" stroke="#ef9a42" stroke-width="31" stroke-linecap="round"/><circle cx="119" cy="219" r="16" fill="#ff7f7f" opacity=".45"/><circle cx="301" cy="219" r="16" fill="#ff7f7f" opacity=".45"/></svg>