<svg xmlns="http://www.w3.org/2000/svg" viewBox="0 0 420 420"><defs><linearGradient id="b" x1="0" y1="0" x2="1" y2="1"><stop stop-color="#ffb85c"/><stop offset="1" stop-color="#e77942"/></linearGradient></defs><ellipse cx="210" cy="382" rx="118" ry="22" fill="#5b4be0" opacity=".13"/><circle cx="112" cy="103" r="59" fill="#a85637"/><circle cx="308" cy="103" r="59" fill="#a85637"/><circle cx="112" cy="103" r="34" fill="#f7b77e"/><circle cx="308" cy="103" r="34" fill="#f7b77e"/><circle cx="210" cy="205" r="145" fill="url(#b)"/><ellipse cx="210" cy="246" rx="87" ry="69" fill="#ffe0b1"/><ellipse cx="157" cy="188" rx="15" ry="21" fill="#283250"/><ellipse cx="263" cy="188" rx="15" ry="21" fill="#283250"/><circle cx="152" cy="182" r="5" fill="white"/><circle cx="258" cy="182" r="5" fill="white"/><ellipse cx="210" cy="225" rx="25" ry="18" fill="#633d38"/><path d="M174 255 Q210 291 246 255" fill="none" stroke="#633d38" stroke-width="10" stroke-linecap="round"/><circle cx="131" cy="233" r="17" fill="#f47f78" opacity=".55"/><circle cx="289" cy="233" r="17" fill="#f47f78" opacity=".55"/><path d="M109 322 Q63 347 76 385" fill="none" stroke="#e77942" stroke-width="35" stroke-linecap="round"/><path d="M311 322 Q357 347 344 385" fill="none" stroke="#e77942" stroke-width="35" stroke-linecap="round"/><path d="M151 333 Q133 386 157 404" fill="none" stroke="#e77942" stroke-width="42" stroke-linecap="round"/><path d="M269 333 Q287 386 263 404" fill="none" stroke="#e77942" stroke-width="42" stroke-linecap="round"/><path d="M311 81 L331 46 L344 87" fill="#ffd84d"/><circle cx="335" cy="43" r="9" fill="#fff2a4"/></svg>