<svg xmlns="http://www.w3.org/2000/svg" viewBox="0 0 420 420"><ellipse cx="210" cy="383" rx="120" ry="20" fill="#5b4be0" opacity=".12"/><ellipse cx="105" cy="185" rx="77" ry="105" fill="#91bce8"/><ellipse cx="315" cy="185" rx="77" ry="105" fill="#91bce8"/><circle cx="210" cy="190" r="125" fill="#9fd0f2"/><ellipse cx="210" cy="253" rx="62" ry="52" fill="#bce1f7"/><ellipse cx="166" cy="172" rx="14" ry="20" fill="#283250"/><ellipse cx="254" cy="172" rx="14" ry="20" fill="#283250"/><circle cx="161" cy="167" r="5" fill="#fff"/><circle cx="249" cy="167" r="5" fill="#fff"/><path d="M210 215 Q203 290 230 329 Q246 351 226 369 Q196 376 189 343 Q184 315 198 288" fill="#9fd0f2" stroke="#78add9" stroke-width="7"/><path d="M168 248 Q185 263 198 248" fill="none" stroke="#587493" stroke-width="7" stroke-linecap="round"/><path d="M244 248 Q258 263 273 248" fill="none" stroke="#587493" stroke-width="7" stroke-linecap="round"/><circle cx="139" cy="218" r="15" fill="#f29aa5" opacity=".5"/><circle cx="281" cy="218" r="15" fill="#f29aa5" opacity=".5"/><path d="M126 310 Q90 350 103 390" fill="none" stroke="#9fd0f2" stroke-width="38" stroke-linecap="round"/><path d="M294 310 Q330 350 317 390" fill="none" stroke="#9fd0f2" stroke-width="38" stroke-linecap="round"/></svg>